{
	"accessors" : 
	[
		{
			"bufferView" : 2,
			"byteOffset" : 0,
			"componentType" : 5126,
			"count" : 4080,
			"max" : 
			[
				0.6800203323364258,
				0.6800203323364258,
				0.6800203323364258,
				0.2509804
			],
			"min" : 
			[
				0.6800203323364258,
				0.6800203323364258,
				0.6800203323364258,
				0.2509804
			],
			"name" : "accessor_color_m0-PolyGlass24_-73698",
			"type" : "VEC4"
		},
		{
			"bufferView" : 2,
			"byteOffset" : 65280,
			"componentType" : 5126,
			"count" : 598,
			"max" : 
			[
				0.6320426464080811,
				0.6940805315971375,
				0.7226724624633789,
				1
			],
			"min" : 
			[
				0.05637409910559654,
				0.1011451631784439,
				0.1275297701358795,
				1
			],
			"name" : "accessor_color_m1-PolyPaper17_-73104",
			"type" : "VEC4"
		},
		{
			"bufferView" : 0,
			"byteOffset" : 0,
			"componentType" : 5123,
			"count" : 5760,
			"max" : 
			[
				4079
			],
			"min" : 
			[
				0
			],
			"name" : "accessor_indices_0_m0-PolyGlass24_-73698",
			"type" : "SCALAR"
		},
		{
			"bufferView" : 0,
			"byteOffset" : 11520,
			"componentType" : 5123,
			"count" : 612,
			"max" : 
			[
				597
			],
			"min" : 
			[
				0
			],
			"name" : "accessor_indices_0_m1-PolyPaper17_-73104",
			"type" : "SCALAR"
		},
		{
			"bufferView" : 1,
			"byteOffset" : 48960,
			"componentType" : 5126,
			"count" : 4080,
			"max" : 
			[
				0.9999884,
				0.9922609,
				0.9975965999999999
			],
			"min" : 
			[
				-0.9999884,
				-0.9922606,
				-0.9975967
			],
			"name" : "accessor_normal_m0-PolyGlass24_-73698",
			"type" : "VEC3"
		},
		{
			"bufferView" : 1,
			"byteOffset" : 105096,
			"componentType" : 5126,
			"count" : 598,
			"max" : 
			[
				0.9789278,
				0.9780424,
				0.987466
			],
			"min" : 
			[
				-0.9257619,
				-0.955927,
				-0.9965743
			],
			"name" : "accessor_normal_m1-PolyPaper17_-73104",
			"type" : "VEC3"
		},
		{
			"bufferView" : 1,
			"byteOffset" : 0,
			"componentType" : 5126,
			"count" : 4080,
			"max" : 
			[
				1.115212,
				2.031679,
				-0.8595377
			],
			"min" : 
			[
				0.9092751,
				1.597573,
				-0.9866655
			],
			"name" : "accessor_position_m0-PolyGlass24_-73698",
			"type" : "VEC3"
		},
		{
			"bufferView" : 1,
			"byteOffset" : 97920,
			"componentType" : 5126,
			"count" : 598,
			"max" : 
			[
				1.737211,
				2.086688,
				-0.2053991
			],
			"min" : 
			[
				0.616778,
				1.276397,
				-1.19302
			],
			"name" : "accessor_position_m1-PolyPaper17_-73104",
			"type" : "VEC3"
		}
	],
	"asset" : 
	{
		"copyright" : "Unknown",
		"generator" : "glTF 1-to-2 Upgrader for Google Blocks",
		"version" : "2.0"
	},
	"bufferViews" : 
	[
		{
			"buffer" : 0,
			"byteLength" : 12744,
			"byteOffset" : 0,
			"name" : "ushortBufferView",
			"target" : 34963
		},
		{
			"buffer" : 0,
			"byteLength" : 112272,
			"byteOffset" : 12744,
			"byteStride" : 12,
			"name" : "vec3BufferView",
			"target" : 34962
		},
		{
			"buffer" : 0,
			"byteLength" : 74848,
			"byteOffset" : 125016,
			"byteStride" : 16,
			"name" : "vec4BufferView",
			"target" : 34962
		}
	],
	"buffers" : 
	[
		{
			"byteLength" : 199864,
			"name" : "model",
			"uri" : "model.bin"
		}
	],
	"materials" : 
	[
		{
			"alphaMode" : "OPAQUE",
			"doubleSided" : false,
			"name" : "BlocksPaper",
			"pbrMetallicRoughness" : 
			{
				"baseColorFactor" : 
				[
					1,
					1,
					1,
					1
				],
				"metallicFactor" : 0,
				"roughnessFactor" : 0.6
			}
		},
		{
			"alphaMode" : "BLEND",
			"doubleSided" : false,
			"name" : "BlocksGlass",
			"pbrMetallicRoughness" : 
			{
				"baseColorFactor" : 
				[
					0.2,
					0.2,
					1,
					0.3
				],
				"metallicFactor" : 1,
				"roughnessFactor" : 0.4
			}
		},
		{
			"alphaMode" : "OPAQUE",
			"doubleSided" : true,
			"name" : "BlocksGem",
			"pbrMetallicRoughness" : 
			{
				"baseColorFactor" : 
				[
					1,
					0.4,
					1,
					1
				],
				"metallicFactor" : 0,
				"roughnessFactor" : 0.1
			}
		}
	],
	"meshes" : 
	[
		{
			"name" : "mesh_m0-PolyGlass24_-73698",
			"primitives" : 
			[
				{
					"attributes" : 
					{
						"COLOR_0" : 0,
						"NORMAL" : 4,
						"POSITION" : 6
					},
					"indices" : 2,
					"material" : 1,
					"mode" : 4
				}
			]
		},
		{
			"name" : "mesh_m1-PolyPaper17_-73104",
			"primitives" : 
			[
				{
					"attributes" : 
					{
						"COLOR_0" : 1,
						"NORMAL" : 5,
						"POSITION" : 7
					},
					"indices" : 3,
					"material" : 0,
					"mode" : 4
				}
			]
		}
	],
	"nodes" : 
	[
		{
			"matrix" : 
			[
				1,
				0,
				0,
				0,
				0,
				1,
				0,
				0,
				0,
				0,
				1,
				0,
				0,
				0,
				0,
				1
			],
			"mesh" : 0,
			"name" : "node_MeshObject-281916224-PolyGlass24"
		},
		{
			"matrix" : 
			[
				1,
				0,
				0,
				0,
				0,
				1,
				0,
				0,
				0,
				0,
				1,
				0,
				0,
				0,
				0,
				1
			],
			"mesh" : 1,
			"name" : "node_MeshObject1855071104-PolyPaper17"
		}
	],
	"scene" : 0,
	"scenes" : 
	[
		{
			"extras" : {},
			"name" : "defaultScene",
			"nodes" : 
			[
				0,
				1
			]
		}
	]
}